<svg width="230" height="62" viewBox="0 0 230 62" fill="none" xmlns="http://www.w3.org/2000/svg">
<path d="M45.5426 46H38.9517L48.9943 16.9091H56.9205L66.9489 46H60.358L53.071 23.5568H52.8438L45.5426 46ZM45.1307 34.5653H60.6989V39.3665H45.1307V34.5653ZM84.3281 36.7102V24.1818H90.3793V46H84.5696V42.0369H84.3423C83.8499 43.3153 83.0308 44.3428 81.8849 45.1193C80.7486 45.8958 79.3613 46.2841 77.723 46.2841C76.2647 46.2841 74.9815 45.9527 73.8736 45.2898C72.7656 44.6269 71.8991 43.6847 71.2741 42.4631C70.6586 41.2415 70.3461 39.7784 70.3366 38.0739V24.1818H76.3878V36.9943C76.3973 38.2822 76.7429 39.3002 77.4247 40.0483C78.1065 40.7964 79.0204 41.1705 80.1662 41.1705C80.8954 41.1705 81.5772 41.0047 82.2116 40.6733C82.8461 40.3324 83.3575 39.8305 83.7457 39.1676C84.1435 38.5047 84.3376 37.6856 84.3281 36.7102ZM103.259 46.3551C101.602 46.3551 100.101 45.929 98.7564 45.0767C97.4212 44.215 96.3606 42.9508 95.5746 41.2841C94.7981 39.608 94.4098 37.553 94.4098 35.1193C94.4098 32.6193 94.8123 30.5407 95.6172 28.8835C96.4221 27.2169 97.4922 25.9716 98.8274 25.1477C100.172 24.3144 101.645 23.8977 103.245 23.8977C104.467 23.8977 105.485 24.1061 106.299 24.5227C107.123 24.9299 107.786 25.4413 108.288 26.0568C108.799 26.6629 109.187 27.2595 109.452 27.8466H109.637V16.9091H115.674V46H109.708V42.5057H109.452C109.168 43.1117 108.766 43.7131 108.245 44.3097C107.734 44.8968 107.066 45.3845 106.242 45.7727C105.428 46.161 104.433 46.3551 103.259 46.3551ZM105.177 41.5398C106.152 41.5398 106.976 41.2746 107.648 40.7443C108.33 40.2045 108.851 39.4517 109.211 38.4858C109.58 37.5199 109.765 36.3883 109.765 35.0909C109.765 33.7936 109.585 32.6667 109.225 31.7102C108.865 30.7538 108.344 30.0152 107.663 29.4943C106.981 28.9735 106.152 28.7131 105.177 28.7131C104.183 28.7131 103.344 28.983 102.663 29.5227C101.981 30.0625 101.465 30.8106 101.114 31.767C100.764 32.7235 100.589 33.8314 100.589 35.0909C100.589 36.3598 100.764 37.482 101.114 38.4574C101.474 39.4233 101.99 40.1809 102.663 40.7301C103.344 41.2699 104.183 41.5398 105.177 41.5398ZM120.649 46V24.1818H126.7V46H120.649ZM123.689 21.3693C122.789 21.3693 122.018 21.071 121.374 20.4744C120.739 19.8684 120.422 19.1439 120.422 18.3011C120.422 17.4678 120.739 16.7528 121.374 16.1562C122.018 15.5502 122.789 15.2472 123.689 15.2472C124.589 15.2472 125.356 15.5502 125.99 16.1562C126.634 16.7528 126.956 17.4678 126.956 18.3011C126.956 19.1439 126.634 19.8684 125.99 20.4744C125.356 21.071 124.589 21.3693 123.689 21.3693ZM141.406 46.4261C139.199 46.4261 137.291 45.9574 135.681 45.0199C134.081 44.0729 132.845 42.7566 131.974 41.071C131.103 39.3759 130.667 37.411 130.667 35.1761C130.667 32.9223 131.103 30.9527 131.974 29.267C132.845 27.572 134.081 26.2557 135.681 25.3182C137.291 24.3712 139.199 23.8977 141.406 23.8977C143.612 23.8977 145.515 24.3712 147.116 25.3182C148.726 26.2557 149.966 27.572 150.837 29.267C151.709 30.9527 152.144 32.9223 152.144 35.1761C152.144 37.411 151.709 39.3759 150.837 41.071C149.966 42.7566 148.726 44.0729 147.116 45.0199C145.515 45.9574 143.612 46.4261 141.406 46.4261ZM141.434 41.7386C142.438 41.7386 143.276 41.4545 143.948 40.8864C144.621 40.3087 145.127 39.5227 145.468 38.5284C145.818 37.5341 145.994 36.4025 145.994 35.1335C145.994 33.8646 145.818 32.733 145.468 31.7386C145.127 30.7443 144.621 29.9583 143.948 29.3807C143.276 28.803 142.438 28.5142 141.434 28.5142C140.421 28.5142 139.568 28.803 138.877 29.3807C138.195 29.9583 137.679 30.7443 137.329 31.7386C136.988 32.733 136.817 33.8646 136.817 35.1335C136.817 36.4025 136.988 37.5341 137.329 38.5284C137.679 39.5227 138.195 40.3087 138.877 40.8864C139.568 41.4545 140.421 41.7386 141.434 41.7386Z" fill="black"/>
<path d="M181.86 27.0938H175.638C175.525 26.2888 175.293 25.5739 174.942 24.9489C174.592 24.3144 174.142 23.7746 173.593 23.3295C173.044 22.8845 172.409 22.5436 171.69 22.3068C170.979 22.0701 170.208 21.9517 169.374 21.9517C167.869 21.9517 166.557 22.3258 165.44 23.0739C164.322 23.8125 163.456 24.892 162.84 26.3125C162.225 27.7235 161.917 29.4375 161.917 31.4545C161.917 33.5284 162.225 35.2708 162.84 36.6818C163.465 38.0928 164.336 39.1581 165.454 39.8778C166.571 40.5975 167.864 40.9574 169.332 40.9574C170.156 40.9574 170.918 40.8485 171.619 40.6307C172.329 40.4129 172.959 40.0956 173.508 39.679C174.057 39.2528 174.512 38.7367 174.871 38.1307C175.241 37.5246 175.496 36.8333 175.638 36.0568L181.86 36.0852C181.699 37.4205 181.297 38.7083 180.653 39.9489C180.018 41.1799 179.161 42.2831 178.082 43.2585C177.012 44.2244 175.733 44.9915 174.246 45.5597C172.769 46.1184 171.098 46.3977 169.232 46.3977C166.638 46.3977 164.317 45.8106 162.272 44.6364C160.236 43.4621 158.626 41.7623 157.442 39.5369C156.268 37.3116 155.681 34.6174 155.681 31.4545C155.681 28.2822 156.278 25.5833 157.471 23.358C158.664 21.1326 160.283 19.4375 162.329 18.2727C164.374 17.0985 166.675 16.5114 169.232 16.5114C170.918 16.5114 172.48 16.7481 173.92 17.2216C175.369 17.6951 176.652 18.3864 177.769 19.2955C178.887 20.1951 179.796 21.2983 180.496 22.6051C181.207 23.9119 181.661 25.4081 181.86 27.0938ZM200.148 36.7102V24.1818H206.2V46H200.39V42.0369H200.163C199.67 43.3153 198.851 44.3428 197.705 45.1193C196.569 45.8958 195.182 46.2841 193.543 46.2841C192.085 46.2841 190.802 45.9527 189.694 45.2898C188.586 44.6269 187.719 43.6847 187.094 42.4631C186.479 41.2415 186.166 39.7784 186.157 38.0739V24.1818H192.208V36.9943C192.218 38.2822 192.563 39.3002 193.245 40.0483C193.927 40.7964 194.841 41.1705 195.987 41.1705C196.716 41.1705 197.397 41.0047 198.032 40.6733C198.666 40.3324 199.178 39.8305 199.566 39.1676C199.964 38.5047 200.158 37.6856 200.148 36.7102ZM222.645 24.1818V28.7273H209.506V24.1818H222.645ZM212.489 18.9545H218.54V39.2955C218.54 39.8542 218.625 40.2898 218.795 40.6023C218.966 40.9053 219.203 41.1184 219.506 41.2415C219.818 41.3646 220.178 41.4261 220.585 41.4261C220.869 41.4261 221.153 41.4025 221.438 41.3551C221.722 41.2983 221.939 41.2557 222.091 41.2273L223.043 45.7301C222.74 45.8248 222.313 45.9337 221.764 46.0568C221.215 46.1894 220.547 46.2699 219.761 46.2983C218.303 46.3551 217.025 46.161 215.926 45.7159C214.837 45.2708 213.99 44.5795 213.384 43.642C212.777 42.7045 212.479 41.5208 212.489 40.0909V18.9545Z" fill="#D21B07"/>
<path d="M28.75 44.25L20 35.5L17.0625 38.4375C17.2292 38.75 17.3438 39.0833 17.4062 39.4375C17.4688 39.7917 17.5 40.1458 17.5 40.5C17.5 41.875 17.0104 43.0521 16.0312 44.0312C15.0521 45.0104 13.875 45.5 12.5 45.5C11.125 45.5 9.94792 45.0104 8.96875 44.0312C7.98958 43.0521 7.5 41.875 7.5 40.5C7.5 39.125 7.98958 37.9479 8.96875 36.9688C9.94792 35.9896 11.125 35.5 12.5 35.5C12.8542 35.5 13.2083 35.5312 13.5625 35.5938C13.9167 35.6562 14.25 35.7708 14.5625 35.9375L17.5 33L14.5625 30.0625C14.25 30.2292 13.9167 30.3438 13.5625 30.4062C13.2083 30.4688 12.8542 30.5 12.5 30.5C11.125 30.5 9.94792 30.0104 8.96875 29.0312C7.98958 28.0521 7.5 26.875 7.5 25.5C7.5 24.125 7.98958 22.9479 8.96875 21.9688C9.94792 20.9896 11.125 20.5 12.5 20.5C13.875 20.5 15.0521 20.9896 16.0312 21.9688C17.0104 22.9479 17.5 24.125 17.5 25.5C17.5 25.8542 17.4688 26.2083 17.4062 26.5625C17.3438 26.9167 17.2292 27.25 17.0625 27.5625L32.5 43V44.25H28.75ZM23.75 31.75L21.25 29.25L28.75 21.75H32.5V23L23.75 31.75ZM12.5 28C13.1875 28 13.776 27.7552 14.2656 27.2656C14.7552 26.776 15 26.1875 15 25.5C15 24.8125 14.7552 24.224 14.2656 23.7344C13.776 23.2448 13.1875 23 12.5 23C11.8125 23 11.224 23.2448 10.7344 23.7344C10.2448 24.224 10 24.8125 10 25.5C10 26.1875 10.2448 26.776 10.7344 27.2656C11.224 27.7552 11.8125 28 12.5 28ZM20 33.625C20.1667 33.625 20.3125 33.5625 20.4375 33.4375C20.5625 33.3125 20.625 33.1667 20.625 33C20.625 32.8333 20.5625 32.6875 20.4375 32.5625C20.3125 32.4375 20.1667 32.375 20 32.375C19.8333 32.375 19.6875 32.4375 19.5625 32.5625C19.4375 32.6875 19.375 32.8333 19.375 33C19.375 33.1667 19.4375 33.3125 19.5625 33.4375C19.6875 33.5625 19.8333 33.625 20 33.625ZM12.5 43C13.1875 43 13.776 42.7552 14.2656 42.2656C14.7552 41.776 15 41.1875 15 40.5C15 39.8125 14.7552 39.224 14.2656 38.7344C13.776 38.2448 13.1875 38 12.5 38C11.8125 38 11.224 38.2448 10.7344 38.7344C10.2448 39.224 10 39.8125 10 40.5C10 41.1875 10.2448 41.776 10.7344 42.2656C11.224 42.7552 11.8125 43 12.5 43Z" fill="#1D1B20"/>
</svg>
