<svg width="30" height="30" viewBox="0 0 30 30" fill="none" xmlns="http://www.w3.org/2000/svg">
<path d="M23.75 26.25L15 17.5L12.0625 20.4375C12.2292 20.75 12.3438 21.0833 12.4063 21.4375C12.4688 21.7917 12.5 22.1458 12.5 22.5C12.5 23.875 12.0104 25.0521 11.0313 26.0313C10.0521 27.0104 8.875 27.5 7.5 27.5C6.125 27.5 4.94792 27.0104 3.96875 26.0313C2.98958 25.0521 2.5 23.875 2.5 22.5C2.5 21.125 2.98958 19.9479 3.96875 18.9688C4.94792 17.9896 6.125 17.5 7.5 17.5C7.85417 17.5 8.20833 17.5312 8.5625 17.5937C8.91667 17.6562 9.25 17.7708 9.5625 17.9375L12.5 15L9.5625 12.0625C9.25 12.2292 8.91667 12.3438 8.5625 12.4063C8.20833 12.4688 7.85417 12.5 7.5 12.5C6.125 12.5 4.94792 12.0104 3.96875 11.0313C2.98958 10.0521 2.5 8.875 2.5 7.5C2.5 6.125 2.98958 4.94792 3.96875 3.96875C4.94792 2.98958 6.125 2.5 7.5 2.5C8.875 2.5 10.0521 2.98958 11.0313 3.96875C12.0104 4.94792 12.5 6.125 12.5 7.5C12.5 7.85417 12.4688 8.20833 12.4063 8.5625C12.3438 8.91667 12.2292 9.25 12.0625 9.5625L27.5 25V26.25H23.75ZM18.75 13.75L16.25 11.25L23.75 3.75H27.5V5L18.75 13.75ZM7.5 10C8.1875 10 8.77604 9.75521 9.26562 9.26562C9.75521 8.77604 10 8.1875 10 7.5C10 6.8125 9.75521 6.22396 9.26562 5.73438C8.77604 5.24479 8.1875 5 7.5 5C6.8125 5 6.22396 5.24479 5.73438 5.73438C5.24479 6.22396 5 6.8125 5 7.5C5 8.1875 5.24479 8.77604 5.73438 9.26562C6.22396 9.75521 6.8125 10 7.5 10ZM15 15.625C15.1667 15.625 15.3125 15.5625 15.4375 15.4375C15.5625 15.3125 15.625 15.1667 15.625 15C15.625 14.8333 15.5625 14.6875 15.4375 14.5625C15.3125 14.4375 15.1667 14.375 15 14.375C14.8333 14.375 14.6875 14.4375 14.5625 14.5625C14.4375 14.6875 14.375 14.8333 14.375 15C14.375 15.1667 14.4375 15.3125 14.5625 15.4375C14.6875 15.5625 14.8333 15.625 15 15.625ZM7.5 25C8.1875 25 8.77604 24.7552 9.26562 24.2656C9.75521 23.776 10 23.1875 10 22.5C10 21.8125 9.75521 21.224 9.26562 20.7344C8.77604 20.2448 8.1875 20 7.5 20C6.8125 20 6.22396 20.2448 5.73438 20.7344C5.24479 21.224 5 21.8125 5 22.5C5 23.1875 5.24479 23.776 5.73438 24.2656C6.22396 24.7552 6.8125 25 7.5 25Z" fill="#1D1B20"/>
</svg>
